<?xml version="1.0" standalone="no"?><!DOCTYPE svg PUBLIC "-//W3C//DTD SVG 1.1//EN" "http://www.w3.org/Graphics/SVG/1.1/DTD/svg11.dtd"><svg t="1559012320249" class="icon" style="" viewBox="0 0 1024 1024" version="1.1" xmlns="http://www.w3.org/2000/svg" p-id="993" xmlns:xlink="http://www.w3.org/1999/xlink" width="200" height="200"><defs><style type="text/css"></style></defs><path d="M944.355556 170.666667h-166.115556V111.502222c0-27.306667-20.48-47.786667-47.786667-47.786666H293.546667c-27.306667 0-47.786667 20.48-47.786667 47.786666v56.888889H79.644444C61.44 170.666667 45.511111 186.595556 45.511111 204.8s15.928889 34.133333 34.133333 34.133333h866.986667c18.204444 0 34.133333-15.928889 34.133333-34.133333-2.275556-18.204444-18.204444-34.133333-36.408888-34.133333zM812.373333 311.751111H211.626667c-9.102222 0-18.204444 2.275556-22.755556 9.102222-6.826667 6.826667-9.102222 13.653333-9.102222 22.755556v550.684444c0 54.613333 45.511111 100.124444 100.124444 100.124445h466.488889c54.613333 0 100.124444-45.511111 100.124445-100.124445V343.608889c0-18.204444-15.928889-31.857778-34.133334-31.857778zM425.528889 841.955556c0 18.204444-15.928889 34.133333-34.133333 34.133333s-34.133333-15.928889-34.133334-34.133333V482.417778c0-18.204444 15.928889-34.133333 34.133334-34.133334s34.133333 15.928889 34.133333 34.133334V841.955556z m241.208889 0c0 18.204444-15.928889 34.133333-34.133334 34.133333s-34.133333-15.928889-34.133333-34.133333V482.417778c0-18.204444 15.928889-34.133333 34.133333-34.133334s34.133333 15.928889 34.133334 34.133334V841.955556z" fill="#d81e06" p-id="994"></path></svg>